<svg viewBox="0 0 48 48" fill="none" xmlns="http://www.w3.org/2000/svg">
<g clip-path="url(#clip0_1162_1210)">
<path fill-rule="evenodd" clip-rule="evenodd" d="M35.6968 28.686C37.0671 28.686 38.3075 29.2416 39.2058 30.1395C39.8855 30.8192 40.3689 31.6956 40.5637 32.6752H43.2905C43.6219 32.6752 43.927 32.6279 44.2006 32.5408C44.7543 32.3646 45.2194 32.0255 45.546 31.5846C45.8683 31.1495 46.0536 30.6094 46.0536 30.0231C46.0536 29.7242 46.0089 29.4207 45.9133 29.1204L44.4796 24.6215H39.1282C38.5909 24.6215 38.1552 24.1857 38.1552 23.6481C38.1552 23.1108 38.5909 22.675 39.1282 22.675H43.8596L43.4458 21.3757C43.1602 20.4789 42.7837 19.6333 42.2622 19.0334C41.8228 18.5277 41.2566 18.2018 40.515 18.2018H36.6702V26.3016C36.6702 26.8392 36.2344 27.275 35.6971 27.275C35.1595 27.275 34.7238 26.8392 34.7238 26.3016V14.2028C34.7238 13.4114 34.3993 12.691 33.8767 12.1685C33.3541 11.6459 32.6338 11.3214 31.8424 11.3214H8.15662C7.3656 11.3214 6.64526 11.6459 6.12268 12.1685C5.6001 12.691 5.27563 13.4114 5.27563 14.2028V14.5829H14.9099C15.4471 14.5829 15.8829 15.0183 15.8829 15.5559C15.8829 16.0931 15.4471 16.5289 14.9099 16.5289H5.27527V24.3062H14.9095C15.4471 24.3062 15.8829 24.7419 15.8829 25.2792C15.8829 25.8168 15.4471 26.2526 14.9095 26.2526H5.27527V29.7942C5.27527 30.5852 5.59973 31.3055 6.12268 31.8281C6.64526 32.3507 7.36523 32.6752 8.15662 32.6752H9.84229C10.0371 31.6956 10.5205 30.8192 11.2002 30.1395C12.0981 29.2416 13.3389 28.686 14.7092 28.686C16.0792 28.686 17.3199 29.2416 18.2179 30.1395C18.8976 30.8192 19.381 31.6956 19.5758 32.6752H30.8298C31.0247 31.6956 31.5081 30.8192 32.1877 30.1395C33.0861 29.2416 34.3264 28.686 35.6968 28.686ZM18.6954 24.3417C19.2133 24.3417 19.6329 24.7614 19.6329 25.2792C19.6329 25.797 19.2133 26.2167 18.6954 26.2167C18.1776 26.2167 17.7579 25.797 17.7579 25.2792C17.7579 24.7614 18.1776 24.3417 18.6954 24.3417ZM18.6954 14.6184C19.2133 14.6184 19.6329 15.0381 19.6329 15.5559C19.6329 16.0734 19.2133 16.4934 18.6954 16.4934C18.1776 16.4934 17.7579 16.0734 17.7579 15.5559C17.7579 15.0381 18.1776 14.6184 18.6954 14.6184ZM0.973022 16.5289C0.435791 16.5289 0 16.0931 0 15.5559C0 15.0183 0.435791 14.5825 0.973022 14.5825H3.32922V14.2024C3.32922 12.8741 3.87195 11.6667 4.74646 10.7922C5.62097 9.91772 6.82837 9.375 8.15662 9.375H31.8424C33.171 9.375 34.3781 9.91772 35.2526 10.7922C36.1271 11.6671 36.6702 12.8741 36.6702 14.2024V16.2554H40.515C41.8931 16.2554 42.9324 16.8468 43.7292 17.7634C44.4441 18.5859 44.9355 19.6677 45.293 20.7902C46.1155 23.3719 46.938 25.9534 47.7605 28.5348C47.9235 29.0464 48 29.5459 48 30.0231C48 31.0327 47.6726 31.9731 47.1046 32.74C46.5414 33.5002 45.7397 34.0844 44.7861 34.3883C44.3112 34.5396 43.8087 34.6216 43.2905 34.6216H40.5637C40.3689 35.6012 39.8855 36.4775 39.2058 37.1572C38.3075 38.0552 37.0671 38.6107 35.6968 38.6107C34.3268 38.6107 33.0861 38.0552 32.1881 37.1572C31.5084 36.4775 31.025 35.6012 30.8298 34.6216H19.5762C19.3813 35.6012 18.8976 36.4775 18.2179 37.1572C17.3199 38.0552 16.0792 38.6107 14.7092 38.6107C13.3389 38.6107 12.0985 38.0552 11.2002 37.1572C10.5205 36.4775 10.0371 35.6012 9.84229 34.6216H8.15662C6.82837 34.6216 5.62097 34.0785 4.74646 33.204C3.87195 32.3295 3.32922 31.1224 3.32922 29.7938V26.2522H0.973022C0.435791 26.2522 0 25.8168 0 25.2792C0 24.7419 0.435791 24.3062 0.973022 24.3062H3.32922V16.5289H0.973022ZM8.48035 21.3904C7.94312 21.3904 7.50732 20.9546 7.50732 20.4174C7.50732 19.8798 7.94275 19.444 8.48035 19.444H22.4169C22.9545 19.444 23.3903 19.8798 23.3903 20.4174C23.3903 20.9546 22.9545 21.3904 22.4169 21.3904H8.48035ZM42.1091 31.1499C41.5719 31.1499 41.1361 30.7141 41.1361 30.1765C41.1361 29.6393 41.5719 29.2035 42.1091 29.2035H43.6439C44.1812 29.2035 44.6169 29.6393 44.6169 30.1765C44.6169 30.7141 44.1812 31.1499 43.6439 31.1499H42.1091ZM35.6884 34.6216C35.1508 34.6216 34.715 34.1858 34.715 33.6482C34.715 33.111 35.1508 32.6752 35.6884 32.6752C36.2307 32.6752 36.6702 33.1036 36.6702 33.6482C36.6702 34.1931 36.2307 34.6216 35.6884 34.6216ZM14.7092 34.6216C14.1716 34.6216 13.7362 34.1858 13.7362 33.6482C13.7362 33.111 14.1716 32.6752 14.7092 32.6752C15.2516 32.6752 15.691 33.1036 15.691 33.6482C15.691 34.1931 15.2516 34.6216 14.7092 34.6216ZM16.842 31.5157C17.3877 32.0614 17.7253 32.8154 17.7253 33.6486C17.7253 34.4817 17.3877 35.2357 16.842 35.7814C16.2964 36.327 15.542 36.6647 14.7092 36.6647C13.8761 36.6647 13.1221 36.327 12.5764 35.7814C12.0308 35.2357 11.6931 34.4817 11.6931 33.6486C11.6931 32.8154 12.0308 32.0614 12.5764 31.5157C13.1221 30.9701 13.8761 30.6324 14.7092 30.6324C15.542 30.6324 16.2964 30.9701 16.842 31.5157ZM37.8296 31.5157C38.3752 32.0614 38.7129 32.8154 38.7129 33.6486C38.7129 34.4817 38.3752 35.2357 37.8296 35.7814C37.2839 36.327 36.5299 36.6647 35.6968 36.6647C34.864 36.6647 34.11 36.327 33.564 35.7814C33.0183 35.2357 32.6807 34.4817 32.6807 33.6486C32.6807 32.8154 33.0183 32.0614 33.564 31.5157C34.11 30.9701 34.864 30.6324 35.6968 30.6324C36.5299 30.6324 37.2839 30.9701 37.8296 31.5157Z" fill="black"/>
</g>
<defs>
<clipPath id="clip0_1162_1210">
<rect width="48" height="48" fill="white"/>
</clipPath>
</defs>
</svg>
