<svg width="48" height="41" viewBox="0 0 48 41" fill="none" xmlns="http://www.w3.org/2000/svg">
<path d="M36 24.8512V2.84311C36 1.44065 34.6568 0.303711 33 0.303711H9C8.73478 0.30379 8.48053 0.392987 8.29303 0.551699L0.292969 7.32348C0.105469 7.48219 0 7.69749 0 7.92191V38.3947C0 39.7971 1.34316 40.9341 3 40.9341H33C34.6568 40.9341 36 39.7971 36 38.3947V36.7018H34V38.3947C34 38.8622 33.5523 39.2412 33 39.2412H3C2.44772 39.2412 1.99997 38.8622 1.99997 38.3947V8.27234L9.414 1.99662H33C33.5523 1.99662 34 2.37562 34 2.84311V24.8512H36Z" fill="black"/>
<path d="M7.99998 1.15039V6.22884C7.99998 6.6963 7.55223 7.07528 6.99996 7.07528H5V8.76807H6.99996C8.65679 8.76807 9.99994 7.63121 9.99994 6.22884V1.15039H7.99998Z" fill="black"/>
<path d="M28.0001 11.3076H8.00003C7.44775 11.3076 7 11.6866 7 12.1541V29.0837C7 29.5512 7.44775 29.9302 8.00003 29.9302H28C28.5522 29.9302 29 29.5512 29 29.0837V12.154C29 11.6865 28.5523 11.3076 28.0001 11.3076ZM27 28.2372H9.00006V13.0005H27V28.2372Z" fill="black"/>
<path d="M15 12.1543H13V24.0054H15V12.1543Z" fill="black"/>
<path d="M14.9999 26.5444H13V29.083H14.9999V26.5444Z" fill="black"/>
<path d="M21.0001 18.9258H14V20.6177H21.0001V18.9258Z" fill="black"/>
<path d="M28.0001 18.9258H24V20.6177H28.0001V18.9258Z" fill="black"/>
<path d="M47.7068 22.3647L44.9378 20.0208C44.5473 19.6903 43.9143 19.6903 43.5238 20.0208L28.2928 32.9134C27.9024 33.2439 27.9024 33.7797 28.2928 34.1103L31.0618 36.4542C31.2493 36.6129 31.5036 36.7021 31.7687 36.7021C32.034 36.7021 32.2882 36.6129 32.4757 36.4542L47.7067 23.5616C48.0972 23.231 48.0972 22.6952 47.7068 22.3647ZM31.7687 34.6587L30.4138 33.5118L44.2307 21.8161L45.5857 22.9631L31.7687 34.6587Z" fill="black"/>
<path d="M30 35.0083V33.3164H28V35.8542C28 36.3214 28.4478 36.7002 29 36.7002H32.0001V35.0083H30V35.0083Z" fill="black"/>
<path d="M10 35.856H4V37.5479H10V35.856Z" fill="black"/>
<path d="M13.9999 35.856H12V37.5479H13.9999V35.856Z" fill="black"/>
</svg>
