<svg viewBox="0 0 48 48" fill="none" xmlns="http://www.w3.org/2000/svg">
<g clip-path="url(#clip0_1162_1185)">
<path d="M13.7617 26.8125C13.2442 26.8125 12.8242 27.2325 12.8242 27.75C12.8242 28.2675 13.2442 28.6875 13.7617 28.6875C14.2792 28.6875 14.6992 28.2675 14.6992 27.75C14.6992 27.2325 14.2792 26.8125 13.7617 26.8125Z" fill="black"/>
<path d="M13.7617 30.5625C13.2439 30.5625 12.8242 30.9822 12.8242 31.5V43.3125C12.8242 43.8303 13.2439 44.25 13.7617 44.25C14.2795 44.25 14.6992 43.8303 14.6992 43.3125V31.5C14.6992 30.9822 14.2794 30.5625 13.7617 30.5625Z" fill="black"/>
<path d="M39.7673 0.704646C39.69 0.40324 39.4682 0.159771 39.1753 0.0548644C38.8824 -0.0499482 38.5565 -0.00279192 38.3055 0.180958C37.3687 0.86674 32.6566 4.39427 31.8891 6.50196C31.4328 7.75737 31.5365 9.12771 32.1491 10.2885C30.9997 11.9372 29.8091 14.2137 28.7614 16.4379V0.937521C28.7614 0.41974 28.3416 2.05843e-05 27.8239 2.05843e-05H20.3239C19.8061 2.05843e-05 19.3864 0.41974 19.3864 0.937521V19.3125H19.2181L17.6169 13.0829C17.6161 13.0798 17.6153 13.0767 17.6144 13.0737L16.1585 7.64084C16.1584 7.64065 16.1584 7.64046 16.1583 7.64028C16.1499 7.60906 16.1396 7.57831 16.128 7.54803C16.1245 7.53874 16.1201 7.52984 16.1163 7.52065C16.1075 7.49956 16.0983 7.47874 16.0879 7.45831C16.0828 7.44837 16.0773 7.43881 16.0719 7.42906C16.0613 7.40984 16.0501 7.3909 16.0381 7.37243C16.032 7.36315 16.0257 7.35406 16.0194 7.34496C16.0065 7.32668 15.993 7.30896 15.9789 7.29152C15.9749 7.28674 15.9717 7.28149 15.9677 7.27681L10.4046 0.721802C10.1717 0.447396 9.80234 0.330583 9.45405 0.421052C9.10577 0.511521 8.83999 0.793427 8.77015 1.14649L7.08921 9.64212C7.08799 9.6484 7.08771 9.65478 7.08659 9.66096C7.08227 9.68543 7.07871 9.7099 7.07637 9.73446C7.07534 9.74487 7.07468 9.75528 7.07402 9.76568C7.07262 9.78912 7.07205 9.81237 7.07234 9.83571C7.07243 9.84659 7.07252 9.85746 7.07309 9.86834C7.07421 9.89225 7.07655 9.91596 7.07955 9.93968C7.08077 9.94943 7.08152 9.95909 7.08302 9.96875C7.08818 10.0018 7.09474 10.0346 7.10337 10.0669L8.55762 15.4943L9.53318 19.3536C8.96412 19.4506 8.43959 19.7197 8.02287 20.1364C7.49159 20.6678 7.1989 21.374 7.1989 22.1249C7.1989 23.3471 7.98274 24.3892 9.0739 24.7762V43.3125C9.0739 45.8972 11.1767 48 13.7614 48H32.5114C35.0961 48 37.1989 45.8972 37.1989 43.3125V24.7778C37.5897 24.6399 37.9481 24.4153 38.2499 24.1136C38.7813 23.5822 39.0739 22.876 39.0739 22.125C39.0739 20.7552 38.0891 19.6115 36.7905 19.3632C37.4021 16.8784 37.8331 14.4091 37.9922 12.4717C39.2438 11.9877 40.231 10.994 40.6992 9.70793C41.4683 7.59612 40.0579 1.83762 39.7673 0.704646ZM33.3965 11.7896C33.7842 12.0945 34.2196 12.3382 34.691 12.5097C35.1416 12.6737 35.6098 12.7667 36.0807 12.7883C35.8928 14.6575 35.4621 16.9846 34.8703 19.3125H29.5112C30.9429 16.0684 32.2652 13.5087 33.3965 11.7896ZM21.2614 1.87502H26.8864V4.03127H25.0114C24.4937 4.03127 24.0739 4.45099 24.0739 4.96877C24.0739 5.48656 24.4937 5.90627 25.0114 5.90627H26.8864V7.78128H25.0114C24.4937 7.78128 24.0739 8.20099 24.0739 8.71878C24.0739 9.23656 24.4937 9.65628 25.0114 9.65628H26.8864V11.5313H25.0114C24.4937 11.5313 24.0739 11.951 24.0739 12.4688C24.0739 12.9866 24.4937 13.4063 25.0114 13.4063H26.8864V15.2813H25.0114C24.4937 15.2813 24.0739 15.701 24.0739 16.2188C24.0739 16.7366 24.4937 17.1563 25.0114 17.1563H26.8864V19.3125H21.2614V1.87502ZM10.2323 3.41655L14.0786 7.94862C13.5004 8.67903 12.7065 9.2029 11.7901 9.44834C10.8773 9.69293 9.9318 9.63743 9.06874 9.2974L10.2323 3.41655ZM9.38637 11.3432C9.80168 11.4302 10.2247 11.4747 10.65 11.4747C11.192 11.4747 11.7377 11.4035 12.2753 11.2595C13.2351 11.0024 14.0996 10.5303 14.8191 9.88634L15.8021 13.5545L17.2822 19.3125H11.4566L10.3736 15.0281C10.3726 15.0237 10.3715 15.0194 10.3703 15.0152L9.38637 11.3432ZM35.3239 43.3125C35.3239 44.8634 34.0622 46.125 32.5114 46.125H13.7614C12.2106 46.125 10.9489 44.8634 10.9489 43.3125V24.9375H35.3239V43.3125ZM37.1989 22.125C37.1989 22.3752 37.1013 22.6106 36.9241 22.7877C36.7468 22.9649 36.5115 23.0625 36.2614 23.0625H10.0114C9.49446 23.0625 9.0739 22.642 9.0739 22.125C9.0739 21.8749 9.17149 21.6395 9.34868 21.4624C9.52596 21.2851 9.76127 21.1875 10.0114 21.1875H18.485C18.4869 21.1875 18.4886 21.1877 18.4904 21.1877C18.4916 21.1877 18.4929 21.1875 18.4941 21.1875H28.0776C28.0791 21.1875 28.0807 21.1877 28.0822 21.1877C28.0832 21.1877 28.0842 21.1875 28.0854 21.1875H35.5919C35.5931 21.1875 35.5943 21.1877 35.5954 21.1877C35.5973 21.1877 35.5991 21.1875 35.6009 21.1875H36.2615C36.7782 21.1875 37.1989 21.6081 37.1989 22.125ZM38.9373 9.06649C38.6065 9.97512 37.8443 10.6423 36.8963 10.8516C36.3776 10.9673 35.8368 10.9314 35.3323 10.7479C34.8097 10.5576 34.3598 10.221 34.0315 9.77487C34.0314 9.77468 34.0312 9.7745 34.0311 9.77431C33.4706 9.01371 33.3287 8.0299 33.6509 7.14312C34.0023 6.17824 36.2892 4.1208 38.2795 2.55583C38.827 5.04377 39.288 8.1034 38.9373 9.06649Z" fill="black"/>
</g>
<defs>
<clipPath id="clip0_1162_1185">
<rect width="48" height="48" fill="white"/>
</clipPath>
</defs>
</svg>
