<svg viewBox="0 0 46 46" fill="none" xmlns="http://www.w3.org/2000/svg">
<g clip-path="url(#clip0_1162_1217)">
<path d="M40.7027 32.4626C40.4504 32.358 40.16 32.4158 39.9669 32.6089L32.5884 39.9874C32.3953 40.1806 32.3375 40.4709 32.4421 40.7232C32.5465 40.9756 32.7928 41.14 33.0659 41.14H40.4444C40.8173 41.14 41.1196 40.8378 41.1196 40.4648V33.0863C41.1195 32.8133 40.955 32.5671 40.7027 32.4626ZM34.6956 39.7897L39.769 34.7163V39.7897H34.6956Z" fill="black"/>
<path d="M45.5833 21.6405C45.331 21.5359 45.0406 21.5937 44.8475 21.7868L42.8254 23.8089V10.06C42.8254 9.68703 42.523 9.3848 42.1502 9.3848H36.9625L38.8456 7.50167C38.8459 7.5014 38.8462 7.50104 38.8465 7.50077L40.6609 5.68628C41.0497 5.29753 41.2638 4.78038 41.2638 4.23054C41.2638 3.68069 41.0497 3.16373 40.6609 2.7748L38.5627 0.676583C38.174 0.287829 37.6568 0.0737305 37.107 0.0737305C36.5571 0.0737305 36.0401 0.287829 35.6512 0.676583L33.8359 2.49197L31.6422 4.6856L26.9431 9.38471H5.9854V2.70526C5.9854 2.33232 5.68308 2.03008 5.31023 2.03008C2.38221 2.03026 0 4.41229 0 7.34049V36.0174C0 36.0673 0.00575001 36.1158 0.0159922 36.1625C0.10925 37.405 0.646786 38.5594 1.54514 39.4357C2.50539 40.3722 3.773 40.888 5.11455 40.888H25.7461L21.8605 44.7737C21.6674 44.9669 21.6096 45.2571 21.7141 45.5095C21.8186 45.7618 22.0649 45.9263 22.3379 45.9263H45.3249C45.6978 45.9263 46.0001 45.6241 46.0001 45.2511V22.2643C46.0001 21.9912 45.8355 21.745 45.5833 21.6405ZM36.6063 1.63153C36.8823 1.35535 37.332 1.35535 37.608 1.63153L39.7063 3.72984C39.9824 4.00593 39.9824 4.45542 39.7063 4.7316L38.3684 6.06955L35.2682 2.96949L36.6063 1.63153ZM34.3134 3.92435L37.4134 7.02433L36.1746 8.26318L33.0747 5.16321L34.3134 3.92435ZM44.6499 29.8509H43.4042C43.0313 29.8509 42.7291 30.1531 42.7291 30.5261C42.7291 30.899 43.0313 31.2012 43.4042 31.2012H44.6499V33.2358H43.4042C43.0313 33.2358 42.7291 33.5381 42.7291 33.911C42.7291 34.284 43.0313 34.5862 43.4042 34.5862H44.6499V36.6207H43.4042C43.0313 36.6207 42.7291 36.9229 42.7291 37.2959C42.7291 37.6688 43.0313 37.9711 43.4042 37.9711H44.6499V40.0057H43.4042C43.0313 40.0057 42.7291 40.308 42.7291 40.6809C42.7291 41.0538 43.0313 41.356 43.4042 41.356H44.6499V44.5762H23.9678L30.7877 37.7564C31.0514 37.4926 31.0514 37.0653 30.7877 36.8016C30.7574 36.7713 30.7249 36.7451 30.6909 36.7217C30.428 36.5416 30.0663 36.5682 29.8328 36.8016L27.0965 39.5379H5.11464C3.06691 39.5379 1.41846 37.9392 1.35359 35.8951C1.35745 35.7668 1.36742 35.6396 1.38342 35.5138C1.38351 35.5131 1.3836 35.5124 1.38369 35.5117C1.39123 35.4519 1.40031 35.3925 1.41064 35.3333C1.41181 35.3266 1.41307 35.3199 1.41423 35.3131C1.42367 35.2604 1.43427 35.2079 1.44586 35.1556C1.44909 35.1411 1.45251 35.1265 1.45592 35.1121C1.46616 35.0679 1.47721 35.0239 1.48907 34.9802C1.49554 34.9564 1.50228 34.933 1.5092 34.9094C1.51908 34.875 1.52932 34.8408 1.54019 34.8069C1.55107 34.7731 1.56266 34.7396 1.57442 34.706C1.5826 34.6826 1.59069 34.6591 1.59949 34.6359C1.61593 34.5917 1.63336 34.5479 1.65133 34.5045C1.65645 34.492 1.66148 34.4794 1.66678 34.4669C1.68987 34.413 1.71386 34.3597 1.7392 34.3071C1.74028 34.3048 1.74127 34.3026 1.74234 34.3003C2.27045 33.2075 3.28613 32.3927 4.50504 32.1398C4.50846 32.1391 4.51187 32.1383 4.51529 32.1376C4.57117 32.1262 4.62759 32.1164 4.68437 32.1073C4.69381 32.1058 4.70324 32.1039 4.71285 32.1025C4.76415 32.0946 4.81599 32.0885 4.86783 32.0827C4.88239 32.0811 4.89685 32.0788 4.9115 32.0774C4.96154 32.0724 5.01203 32.069 5.06253 32.0659C5.07852 32.0649 5.09451 32.0632 5.1105 32.0624C5.17663 32.0591 5.24329 32.0574 5.31023 32.0574C5.68308 32.0574 5.9854 31.7551 5.9854 31.3822V26.4867C5.9854 26.1137 5.68308 25.8115 5.31023 25.8115C4.93737 25.8115 4.63505 26.1137 4.63505 26.4867V30.7495C3.49493 30.8937 2.43666 31.4022 1.60219 32.2171C1.51441 32.3028 1.43121 32.3919 1.35017 32.4825V7.34049C1.35017 5.38719 2.77204 3.75949 4.63496 3.43803V10.06V23.7861V23.7861C4.63496 24.159 4.93728 24.4613 5.31014 24.4613C5.68299 24.4613 5.98531 24.159 5.98531 23.7861V23.7861V10.7352H25.5929L21.8604 14.4676C21.5967 14.7314 21.5967 15.1588 21.8604 15.4225C22.1241 15.6861 22.5515 15.6861 22.8151 15.4225L27.7002 10.5374C27.7004 10.5372 27.7005 10.537 27.7007 10.537L32.1197 6.11798L35.2195 9.21805L34.8559 9.58173C34.8556 9.582 34.8552 9.58227 34.855 9.58254L21.2411 23.1966L18.1411 20.0966L20.8246 17.4132C21.0883 17.1494 21.0883 16.722 20.8246 16.4583C20.5609 16.1947 20.1334 16.1947 19.8698 16.4583L16.7088 19.6192C16.6919 19.6361 16.6761 19.654 16.6613 19.6723C16.6563 19.6784 16.6519 19.685 16.6473 19.6913C16.6377 19.704 16.6284 19.7168 16.6197 19.7301C16.6147 19.7378 16.6103 19.7457 16.6056 19.7537C16.5981 19.7663 16.5909 19.779 16.5844 19.792C16.5801 19.8005 16.5762 19.809 16.5723 19.8178C16.5662 19.831 16.5607 19.8445 16.5555 19.858C16.5537 19.8628 16.5514 19.8672 16.5497 19.872L15.2343 23.5983L14.3375 26.139C14.3256 26.1728 14.3171 26.2071 14.3107 26.2417H12.0653C11.6925 26.2417 11.3901 26.5439 11.3901 26.9168C11.3901 27.2898 11.6925 27.592 12.0653 27.592H30.7631C31.136 27.592 31.4383 27.2898 31.4383 26.9168C31.4383 26.5439 31.136 26.2417 30.7631 26.2417H17.3482L21.4658 24.7882C21.4692 24.7869 21.4724 24.7852 21.4758 24.784C21.4918 24.778 21.5076 24.7714 21.5231 24.7643C21.5293 24.7614 21.5355 24.7587 21.5415 24.7557C21.5577 24.7477 21.5736 24.7388 21.5892 24.7292C21.5943 24.7262 21.5995 24.7234 21.6044 24.7203C21.6207 24.7098 21.6365 24.6984 21.652 24.6864C21.6559 24.6834 21.6599 24.6808 21.6637 24.6778C21.6825 24.6627 21.7009 24.6464 21.7183 24.629L35.6122 10.7352H41.4749V25.1593L31.8171 34.8173C31.5534 35.0811 31.5534 35.5084 31.8171 35.7721C31.8335 35.7886 31.8507 35.804 31.8684 35.8185C31.9922 35.9194 32.1434 35.9699 32.2945 35.9699C32.4456 35.9699 32.5969 35.9194 32.7206 35.8185C32.7383 35.8041 32.7555 35.7886 32.7719 35.7721C32.7722 35.7719 32.7719 35.7721 32.7722 35.7719L44.6499 23.8941V29.8509ZM20.0062 23.8712L18.0722 24.554L16.7837 23.2654L17.4664 21.3314L20.0062 23.8712Z" fill="black"/>
</g>
<defs>
<clipPath id="clip0_1162_1217">
<rect width="46" height="46" fill="white"/>
</clipPath>
</defs>
</svg>
