<svg width="137" height="54" viewBox="0 0 137 54" fill="none" xmlns="http://www.w3.org/2000/svg">
<path d="M0.425146 7.81353C0.0813751 8.24578 0.153101 8.87487 0.58535 9.21864L7.62927 14.8207C8.06152 15.1645 8.69061 15.0928 9.03438 14.6605C9.37815 14.2283 9.30642 13.5992 8.87417 13.2554L2.61291 8.27578L7.59254 2.01452C7.93631 1.58227 7.86458 0.953185 7.43233 0.609413C7.00008 0.265642 6.37099 0.337368 6.02722 0.769619L0.425146 7.81353ZM136.14 47.2682C136.565 46.9146 136.622 46.2841 136.268 45.8598L130.507 38.9458C130.153 38.5215 129.523 38.4642 129.098 38.8178C128.674 39.1713 128.617 39.8019 128.97 40.2262L134.092 46.3719L127.946 51.4934C127.522 51.847 127.464 52.4776 127.818 52.9018C128.171 53.3261 128.802 53.3834 129.226 53.0299L136.14 47.2682ZM1.32109 9.42955C22.6095 7.00233 33.9087 14.341 51.1187 23.4998C68.3672 32.679 91.2461 43.481 135.41 47.4959L135.591 45.5041C91.754 41.519 69.1329 30.8209 52.0583 21.7342C34.9452 12.627 23.0983 4.93366 1.09452 7.44242L1.32109 9.42955Z" fill="white" fill-opacity="0.2"/>
</svg>
