<svg width="128" height="38" viewBox="0 0 128 38" fill="none" xmlns="http://www.w3.org/2000/svg">
<path d="M0.00893801 34.8671C-0.064738 35.4144 0.319249 35.9178 0.866598 35.9915L9.78616 37.1921C10.3335 37.2658 10.8369 36.8818 10.9106 36.3345C10.9843 35.7871 10.6003 35.2837 10.053 35.21L2.12446 34.1428L3.19168 26.2143C3.26536 25.667 2.88137 25.1635 2.33402 25.0898C1.78668 25.0162 1.28324 25.4001 1.20956 25.9475L0.00893801 34.8671ZM127.984 3.65511C128.083 3.11179 127.723 2.59098 127.18 2.49183L118.326 0.876146C117.782 0.776999 117.262 1.13707 117.162 1.68038C117.063 2.22369 117.423 2.74451 117.967 2.84365L125.837 4.27982L124.401 12.1499C124.301 12.6932 124.661 13.214 125.205 13.3131C125.748 13.4123 126.269 13.0522 126.368 12.5089L127.984 3.65511ZM1.60646 35.7956C8.79361 30.3137 16.728 27.9492 25.5145 26.9227C34.3458 25.8911 43.9135 26.2183 54.4526 26.0594C75.4824 25.7424 99.8364 23.4709 127.569 4.29815L126.431 2.65303C99.1636 21.5046 75.2676 23.7454 54.4224 24.0596C44.024 24.2164 34.2479 23.8889 25.2824 24.9363C16.272 25.9888 7.95639 28.437 0.393543 34.2053L1.60646 35.7956Z" fill="white" fill-opacity="0.2"/>
</svg>
