<svg viewBox="0 0 43 38" fill="none" xmlns="http://www.w3.org/2000/svg">
<g clip-path="url(#clip0_1162_1199)">
<path d="M37.9707 5.36621H35.4553V7.54458H37.9707V5.36621Z" fill="black"/>
<path d="M32.9395 5.36621H30.424V7.54458H32.9395V5.36621Z" fill="black"/>
<path d="M27.9082 5.36621H25.3928V7.54458H27.9082V5.36621Z" fill="black"/>
<path d="M43 0.0837402V37.95H0.102829V0.0837402H43ZM2.2812 2.26211V10.4811H40.8216V2.26211H2.2812ZM40.8216 35.6878V12.6595H2.2812V35.6878H40.8216Z" fill="black"/>
<path d="M27.2784 16.5361L33.1895 24.0478L27.2784 31.5595L25.7222 30.0053L30.4099 24.0478L25.7222 18.0904L27.2784 16.5361Z" fill="black"/>
<path d="M17.4648 18.0904L12.7772 24.0478L17.4648 30.0053L15.8249 31.5595L9.91384 24.0478L15.8249 16.5361L17.4648 18.0904Z" fill="black"/>
<path d="M22.3887 16.5027H20.2941V31.5929H22.3887V16.5027Z" fill="black"/>
</g>
<defs>
<clipPath id="clip0_1162_1199">
<rect width="42.8972" height="37.95" fill="white" transform="matrix(-1 0 0 1 43 0)"/>
</clipPath>
</defs>
</svg>
