<!DOCTYPE svg PUBLIC "-//W3C//DTD SVG 1.1//EN" "http://www.w3.org/Graphics/SVG/1.1/DTD/svg11.dtd">
<!-- Uploaded to: SVG Repo, www.svgrepo.com, Transformed by: SVG Repo Mixer Tools -->
<svg fill="#ff689b" version="1.1" id="Layer_1" xmlns="http://www.w3.org/2000/svg" xmlns:xlink="http://www.w3.org/1999/xlink" width="800px" height="800px" viewBox="0 0 48.415 48.665" xml:space="preserve" stroke="#ff689b">
<g id="SVGRepo_bgCarrier" stroke-width="0"/>
<g id="SVGRepo_tracerCarrier" stroke-linecap="round" stroke-linejoin="round"/>
<g id="SVGRepo_iconCarrier"> <path d="M47.661,0.763C47.163,0.256,46.465,0,45.59,0c-2.648,0-6.75,2.402-10.453,6.126c-2.52,2.533-4.708,5.591-5.635,8.167 L18.651,15.22c-0.191,0.049-0.344,0.126-0.451,0.22c-0.008,0.01-0.018,0.019-0.027,0.026L0.506,33.23 c-0.675,0.671-0.675,1.771,0,2.446l12.42,12.48c0.67,0.678,1.764,0.678,2.432,0l17.673-17.759c0.011-0.007,0.019-0.017,0.027-0.024 c0.094-0.108,0.17-0.261,0.213-0.453l0.924-10.917c2.427-0.863,5.39-2.895,8.13-5.654c2.314-2.327,4.164-4.856,5.202-7.125 C48.663,3.754,48.711,1.811,47.661,0.763z M30.274,20.597c-0.652,0.65-1.699,0.65-2.347,0c-0.651-0.65-0.651-1.708,0-2.361 c0.353-0.354,0.815-0.513,1.28-0.483c0.125,0.364,0.32,0.685,0.592,0.96c0.265,0.27,0.586,0.466,0.957,0.588 C30.788,19.766,30.625,20.242,30.274,20.597z M46.314,5.663c-0.978,2.126-2.729,4.521-4.935,6.736 c-2.375,2.386-4.948,4.228-7.06,5.126l0.157-1.844c0.169-0.699-0.969-1.844-1.664-1.673L31,14.165 c0.045-0.117,0.099-0.232,0.151-0.354c0.974-2.13,2.728-4.521,4.931-6.736c3.408-3.427,7.23-5.731,9.506-5.731 c0.504,0,0.885,0.126,1.125,0.368C47.322,2.318,47.17,3.794,46.314,5.663z"/> </g>
</svg>